<svg xmlns="http://www.w3.org/2000/svg" style="display:none">
  <symbol id="faders-horizontal" viewBox="0 0 256 256">
    <path d="M176,80a8,8,0,0,1,8-8h32a8,8,0,0,1,0,16H184A8,8,0,0,1,176,80ZM40,88H144v16a8,8,0,0,0,16,0V56a8,8,0,0,0-16,0V72H40a8,8,0,0,0,0,16Zm176,80H120a8,8,0,0,0,0,16h96a8,8,0,0,0,0-16ZM88,144a8,8,0,0,0-8,8v16H40a8,8,0,0,0,0,16H80v16a8,8,0,0,0,16,0V152A8,8,0,0,0,88,144Z"/>
  </symbol>
  <symbol id="magnifying-glass" viewBox="0 0 256 256">
    <path d="M229.66,218.34l-50.07-50.06a88.11,88.11,0,1,0-11.31,11.31l50.06,50.07a8,8,0,0,0,11.32-11.32ZM40,112a72,72,0,1,1,72,72A72.08,72.08,0,0,1,40,112Z"/>
  </symbol>
  <symbol id="arrow-u-up-left" viewBox="0 0 256 256">
    <path d="M232,144a64.07,64.07,0,0,1-64,64H80a8,8,0,0,1,0-16h88a48,48,0,0,0,0-96H51.31l34.35,34.34a8,8,0,0,1-11.32,11.32l-48-48a8,8,0,0,1,0-11.32l48-48A8,8,0,0,1,85.66,45.66L51.31,80H168A64.07,64.07,0,0,1,232,144Z"/>
  </symbol>
  <symbol id="clock-counter-clockwise" viewBox="0 0 256 256">
    <path d="M136,80v43.47l36.12,21.67a8,8,0,0,1-8.24,13.72l-40-24A8,8,0,0,1,120,128V80a8,8,0,0,1,16,0Zm-8-48A95.44,95.44,0,0,0,60.08,60.15C52.81,67.51,46.35,74.59,40,82V64a8,8,0,0,0-16,0v40a8,8,0,0,0,8,8H72a8,8,0,0,0,0-16H49c7.15-8.42,14.27-16.35,22.39-24.57a80,80,0,1,1,1.66,114.75,8,8,0,1,0-11,11.64A96,96,0,1,0,128,32Z"/>
  </symbol>
  <symbol id="list" viewBox="0 0 256 256">
    <path d="M224,128a8,8,0,0,1-8,8H40a8,8,0,0,1,0-16H216A8,8,0,0,1,224,128ZM40,72H216a8,8,0,0,0,0-16H40a8,8,0,0,0,0,16ZM216,184H40a8,8,0,0,0,0,16H216a8,8,0,0,0,0-16Z"/>
  </symbol>
  <symbol id="image" viewBox="0 0 256 256">
    <path d="M216,40H40A16,16,0,0,0,24,56V200a16,16,0,0,0,16,16H216a16,16,0,0,0,16-16V56A16,16,0,0,0,216,40Zm0,16V158.75l-26.07-26.06a16,16,0,0,0-22.63,0l-20,20-44-44a16,16,0,0,0-22.62,0L40,149.37V56ZM40,172l52-52,80,80H40Zm176,28H194.63l-36-36,20-20L216,181.38V200ZM144,100a12,12,0,1,1,12,12A12,12,0,0,1,144,100Z"/>
  </symbol>
  <symbol id="plus" viewBox="0 0 256 256">
    <path d="M224,128a8,8,0,0,1-8,8H136v80a8,8,0,0,1-16,0V136H40a8,8,0,0,1,0-16h80V40a8,8,0,0,1,16,0v80h80A8,8,0,0,1,224,128Z"/>
  </symbol>
  <symbol id="trash" viewBox="0 0 256 256">
    <path d="M216,48H176V40a24,24,0,0,0-24-24H104A24,24,0,0,0,80,40v8H40a8,8,0,0,0,0,16h8V208a16,16,0,0,0,16,16H192a16,16,0,0,0,16-16V64h8a8,8,0,0,0,0-16ZM96,40a8,8,0,0,1,8-8h48a8,8,0,0,1,8,8v8H96Zm96,168H64V64H192ZM112,104v64a8,8,0,0,1-16,0V104a8,8,0,0,1,16,0Zm48,0v64a8,8,0,0,1-16,0V104a8,8,0,0,1,16,0Z"/>
  </symbol>
  <symbol id="arrow-up" viewBox="0 0 256 256">
    <path d="M205.66,117.66a8,8,0,0,1-11.32,0L136,59.31V216a8,8,0,0,1-16,0V59.31L61.66,117.66a8,8,0,0,1-11.32-11.32l72-72a8,8,0,0,1,11.32,0l72,72A8,8,0,0,1,205.66,117.66Z"/>
  </symbol>
</svg>
